<svg width="17" height="17" viewBox="0 0 17 17" fill="none" xmlns="http://www.w3.org/2000/svg">
<path d="M5.03255 9.35177C4.5539 9.35177 4.16588 8.97038 4.16588 8.49992C4.16588 8.02945 4.5539 7.64807 5.03255 7.64807C5.5112 7.64807 5.89922 8.02945 5.89922 8.49992C5.89922 8.97038 5.5112 9.35177 5.03255 9.35177Z" fill="#65676D"/>
<path d="M5.03255 12.7592C4.5539 12.7592 4.16588 12.3778 4.16588 11.9073C4.16588 11.4369 4.5539 11.0555 5.03255 11.0555C5.5112 11.0555 5.89922 11.4369 5.89922 11.9073C5.89922 12.3778 5.5112 12.7592 5.03255 12.7592Z" fill="#65676D"/>
<path d="M7.63255 11.9073C7.63255 12.3778 8.02057 12.7592 8.49922 12.7592C8.97786 12.7592 9.36588 12.3778 9.36588 11.9073C9.36588 11.4369 8.97786 11.0555 8.49922 11.0555C8.02057 11.0555 7.63255 11.4369 7.63255 11.9073Z" fill="#65676D"/>
<path d="M11.9659 12.7592C11.4872 12.7592 11.0992 12.3778 11.0992 11.9073C11.0992 11.4369 11.4872 11.0555 11.9659 11.0555C12.4445 11.0555 12.8326 11.4369 12.8326 11.9073C12.8326 12.3778 12.4445 12.7592 11.9659 12.7592Z" fill="#65676D"/>
<path d="M7.63255 8.49992C7.63255 8.97038 8.02057 9.35177 8.49922 9.35177C8.97786 9.35177 9.36588 8.97038 9.36588 8.49992C9.36588 8.02945 8.97786 7.64807 8.49922 7.64807C8.02057 7.64807 7.63255 8.02945 7.63255 8.49992Z" fill="#65676D"/>
<path d="M11.9659 9.35177C11.4872 9.35177 11.0992 8.97038 11.0992 8.49992C11.0992 8.02945 11.4872 7.64807 11.9659 7.64807C12.4445 7.64807 12.8326 8.02945 12.8326 8.49992C12.8326 8.97038 12.4445 9.35177 11.9659 9.35177Z" fill="#65676D"/>
<path d="M5.03255 4.24066C4.5539 4.24066 4.16588 4.62205 4.16588 5.09251C4.16588 5.56298 4.5539 5.94436 5.03255 5.94436H11.9659C12.4445 5.94436 12.8326 5.56298 12.8326 5.09251C12.8326 4.62205 12.4445 4.24066 11.9659 4.24066H5.03255Z" fill="#65676D"/>
<path fill-rule="evenodd" clip-rule="evenodd" d="M3.29922 0.833252C1.86328 0.833252 0.699219 1.97741 0.699219 3.38881V13.611C0.699219 15.0224 1.86328 16.1666 3.29922 16.1666H13.6992C15.1352 16.1666 16.2992 15.0224 16.2992 13.611V3.38881C16.2992 1.97741 15.1352 0.833252 13.6992 0.833252H3.29922ZM13.6992 2.53696H3.29922C2.82057 2.53696 2.43255 2.91834 2.43255 3.38881V13.611C2.43255 14.0815 2.82057 14.4629 3.29922 14.4629H13.6992C14.1779 14.4629 14.5659 14.0815 14.5659 13.611V3.38881C14.5659 2.91834 14.1779 2.53696 13.6992 2.53696Z" fill="#65676D"/>
</svg>
