<svg width="16" height="16" viewBox="0 0 16 16" fill="none" xmlns="http://www.w3.org/2000/svg">
<path fill-rule="evenodd" clip-rule="evenodd" d="M7.83079 0.501897C9.80621 0.457592 11.7958 1.18918 13.3033 2.69668C16.2322 5.62562 16.2322 10.3744 13.3033 13.3033C10.3744 16.2322 5.62563 16.2322 2.6967 13.3033C1.18919 11.7958 0.457593 9.80619 0.501898 7.83076C0.515307 7.23289 0.599808 6.63634 0.755362 6.05482C1.18001 6.4616 1.61918 6.82069 2.06279 7.13189C3.07635 7.84292 4.11304 8.30399 5.05241 8.51274C6.4819 8.83041 7.46328 8.5367 7.99999 8C8.5367 7.46329 8.8304 6.48191 8.51274 5.05242C8.30398 4.11303 7.84292 3.07633 7.13188 2.06276C6.82067 1.61916 6.46162 1.17998 6.05484 0.755342C6.63636 0.599788 7.23292 0.515307 7.83079 0.501897ZM3.75736 12.2426C2.81896 11.3042 2.25638 10.1323 2.06961 8.91395C4.7292 10.4482 7.5215 10.5998 9.06065 9.06066C10.5998 7.52151 10.4482 4.72921 8.91396 2.06961C10.1323 2.25638 11.3042 2.81895 12.2426 3.75734C14.5858 6.10049 14.5858 9.89948 12.2426 12.2426C9.89949 14.5858 6.10051 14.5858 3.75736 12.2426Z" fill="#65676D"/>
</svg>
